#!OML:ASF H:\Terrain\Patient Classification 1\Walking\steve\steve.ASF
:FULLY-SPECIFIED
:DEGREES
124
root 9.00055 16.0642 -9.78069 7.61533 -11.1723 -4.24502
lowerback -0.449494 4.70157 5.62179
upperback -2.85924 6.36506 1.75416
thorax -2.29249 3.07379 -1.39389
lowerneck -11.0478 -0.0315699 -2.84357
upperneck 11.0517 0.608083 -1.38299
head 5.13697 0.0828443 0.0774977
rclavicle -4.51707e-014 -4.21423e-014
rhumerus -6.19694 -1.21951 -87.0545
rradius 40.1553
rwrist -15.9123
rhand -20.744 -41.9931
rfingers 7.12502
rthumb 5.62155 -71.8985
lclavicle -4.51707e-014 -4.21423e-014
lhumerus -59.557 16.9221 70.3922
lradius 12.449
lwrist -7.87894
lhand -13.5651 -8.39029
lfingers 7.12502
lthumb 12.5484 21.2129
rfemur -0.896457 -5.32943 27.0533
rtibia 22.0716
rfoot -12.7481 24.8158
rtoes 12.8041
lfemur -37.2937 3.51801 -13.8394
ltibia 22.9587
lfoot -16.5939 9.25593
ltoes -17.8311
125
root 9.01262 16.0525 -9.55296 8.06689 -11.5168 -4.68551
lowerback -0.712689 4.82857 5.97452
upperback -3.06079 6.52813 1.86735
thorax -2.3206 3.1442 -1.45511
lowerneck -10.8035 0.00818894 -3.03334
upperneck 10.9504 0.656454 -1.19516
head 5.06291 0.114063 0.170176
rclavicle 1.1045e-014 2.22639e-014
rhumerus -5.29567 -0.581762 -86.8477
rradius 40.9742
rwrist -16.2613
rhand -17.0208 -37.3503
rfingers 7.12502
rthumb 9.21526 -67.1289
lclavicle 1.1045e-014 2.22639e-014
lhumerus -61.1887 16.2842 70.5016
lradius 12.6883
lwrist -6.35057
lhand -13.6985 -8.40064
lfingers 7.12502
lthumb 12.4198 21.2104
rfemur 0.252448 -5.06245 27.1547
rtibia 20.7076
rfoot -11.9305 25.0683
rtoes 12.9896
lfemur -37.6652 2.39013 -12.4386
ltibia 20.3633
lfoot -17.465 9.94445
ltoes -16.7892
126
root 9.02212 16.0404 -9.3217 8.37072 -11.8413 -5.10674
lowerback -0.847865 4.93084 6.20975
upperback -3.15382 6.66159 1.99194
thorax -2.32285 3.20489 -1.44655
lowerneck -10.9454 0.0366852 -3.12572
upperneck 11.0363 0.71032 -1.14055
head 5.11249 0.138265 0.206441
rclavicle -5.69549e-014 2.10712e-014
rhumerus -4.27832 0.843811 -86.4336
rradius 41.7615
rwrist -17.2303
rhand -21.269 -42.1572
rfingers 7.12502
rthumb 5.11466 -72.0755
lclavicle -5.69549e-014 2.10712e-014
lhumerus -62.7129 16.0655 70.1373
lradius 12.85
lwrist -5.38416
lhand -12.9334 -8.53288
lfingers 7.12502
lthumb 13.1574 21.032
rfemur 1.44193 -4.85872 27.2288
rtibia 19.6186
rfoot -11.2502 25.2801
rtoes 13.2093
lfemur -37.7889 1.72646 -11.294
ltibia 17.8494
lfoot -18.1778 10.651
ltoes -14.6224
127
root 9.02565 16.023 -9.087 8.70431 -12.4205 -5.38312
lowerback -1.24705 5.16955 6.36783
upperback -3.13082 6.9422 1.94026
thorax -2.03276 3.34966 -1.53998
lowerneck -10.7967 -0.0283434 -3.19172
upperneck 10.7397 0.609166 -1.04896
head 4.9958 0.0975093 0.23756
rclavicle -1.57972e-014 -1.59028e-015
rhumerus -2.9935 1.73952 -86.1594
rradius 42.2347
rwrist -17.9085
rhand -21.5098 -41.747
rfingers 7.12502
rthumb 4.88214 -71.6708
lclavicle -1.57972e-014 -1.59028e-015
lhumerus -63.8556 15.7604 69.6203
lradius 12.8249
lwrist -4.58578
lhand -12.1844 -8.89967
lfingers 7.12502
lthumb 13.8793 20.6172
rfemur 2.48215 -4.77383 27.0475
rtibia 18.6248
rfoot -10.3516 25.6671
rtoes 12.6891
lfemur -37.9849 0.988655 -10.1437
ltibia 15.681
lfoot -19.0527 11.877
ltoes -12.0373
128
root 9.02755 15.9969 -8.85794 9.12195 -13.0906 -5.40167
lowerback -1.77535 5.40524 6.16815
upperback -3.0638 7.20514 1.8359
thorax -1.65912 3.49648 -1.47495
lowerneck -10.9725 -0.0385382 -3.20359
upperneck 10.3808 0.575562 -0.876127
head 4.91309 0.0969195 0.29037
rclavicle 5.1448e-014 3.18055e-015
rhumerus -1.60043 2.29112 -86.0244
rradius 42.6335
rwrist -18.1944
rhand -17.7763 -37.5524
rfingers 7.12502
rthumb 8.48618 -67.3619
lclavicle 5.1448e-014 3.18055e-015
lhumerus -64.8667 15.8064 68.7341
lradius 12.8375
lwrist -4.1064
lhand -12.0846 -9.26469
lfingers 7.12502
lthumb 13.9755 20.2456
rfemur 3.29293 -4.39767 26.6252
rtibia 17.8003
rfoot -9.37439 25.9025
rtoes 13.8311
lfemur -38.2694 -0.0124558 -9.08126
ltibia 13.7376
lfoot -19.5131 13.497
ltoes -10.7065
129
root 9.03909 15.9833 -8.6331 9.36258 -13.4658 -5.39159
lowerback -1.86428 5.50963 6.03582
upperback -3.08291 7.33735 1.73832
thorax -1.62313 3.56517 -1.49126
lowerneck -11.4123 -0.0508376 -3.08537
upperneck 10.3598 0.554864 -0.861204
head 4.98003 0.0912148 0.274646
rclavicle -6.17785e-014 1.19271e-015
rhumerus -0.441201 2.57346 -86.002
rradius 43.0087
rwrist -18.1006
rhand -18.9959 -38.4247
rfingers 7.12502
rthumb 7.30907 -68.2785
lclavicle -6.17785e-014 1.19271e-015
lhumerus -65.9708 15.6292 68.1977
lradius 13.114
lwrist -3.18825
lhand -12.1315 -8.69142
lfingers 7.12502
lthumb 13.9303 20.8219
rfemur 4.17773 -3.84291 26.2668
rtibia 17.2043
rfoot -8.50551 25.8518
rtoes 15.6512
lfemur -38.257 0.0169659 -8.83267
ltibia 11.843
lfoot -18.8749 13.9399
ltoes -11.8132
130
root 9.05416 15.9714 -8.40382 9.36401 -13.8125 -5.18742
lowerback -1.70977 5.64035 5.76609
upperback -3.16008 7.52777 1.57514
thorax -1.78729 3.65886 -1.52885
lowerneck -11.5447 -0.148234 -3.09051
upperneck 10.4616 0.418787 -0.760601
head 5.03481 0.0292618 0.296677
rclavicle -9.47147e-014 -2.0276e-014
rhumerus 0.34579 2.58713 -85.8876
rradius 43.3819
rwrist -17.994
rhand -19.2876 -38.1527
rfingers 7.12502
rthumb 7.02754 -68.016
lclavicle -9.47147e-014 -2.0276e-014
lhumerus -67.0973 15.1547 67.8677
lradius 13.2735
lwrist -2.45825
lhand -12.1722 -8.48402
lfingers 7.12502
lthumb 13.8911 21.032
rfemur 5.35131 -3.45601 25.6364
rtibia 16.4486
rfoot -7.27775 25.8306
rtoes 15.8155
lfemur -38.209 -0.0704556 -8.78209
ltibia 10.6571
lfoot -19.3631 13.5927
ltoes -11.7901
131
root 9.06914 15.9394 -8.17107 9.29773 -14.0925 -5.28419
lowerback -1.49189 5.72187 5.65613
upperback -3.13471 7.65354 1.60979
thorax -1.89267 3.72197 -1.45456
lowerneck -11.6787 -0.169528 -3.15876
upperneck 10.3185 0.394541 -0.682325
head 5.01254 0.0215913 0.330117
rclavicle -6.9264e-015 9.14409e-015
rhumerus 1.03807 3.22834 -85.3959
rradius 43.8184
rwrist -18.5042
rhand -17.7066 -37.1064
rfingers 7.12502
rthumb 8.55351 -66.9132
lclavicle -6.9264e-015 9.14409e-015
lhumerus -68.1943 15.195 67.2069
lradius 13.3473
lwrist -2.69272
lhand -11.5712 -9.1536
lfingers 7.12502
lthumb 14.4702 20.3219
rfemur 6.84113 -3.20045 25.2912
rtibia 15.3842
rfoot -5.92606 25.8052
rtoes 14.7852
lfemur -38.3619 -0.184419 -8.43623
ltibia 10.5008
lfoot -20.1658 12.5962
ltoes -9.98233
132
root 9.08214 15.9105 -7.93185 9.28019 -14.239 -5.82682
lowerback -1.32797 5.78712 6.12086
upperback -3.03557 7.74867 1.6886
thorax -1.8282 3.76318 -1.63257
lowerneck -11.7564 -0.220295 -3.17757
upperneck 10.0626 0.324818 -0.65526
head 4.94662 -0.00809035 0.335981
rclavicle 4.56832e-014 7.55382e-015
rhumerus 1.60192 3.87069 -84.9317
rradius 44.4343
rwrist -19.2271
rhand -21.306 -38.9172
rfingers 7.12502
rthumb 5.07891 -68.8363
lclavicle 4.56832e-014 7.55382e-015
lhumerus -68.9879 15.0249 67.0148
lradius 13.3807
lwrist -2.82489
lhand -11.9979 -9.23679
lfingers 7.12502
lthumb 14.059 20.2677
rfemur 8.29504 -2.91461 25.4668
rtibia 14.4351
rfoot -5.0036 25.6711
rtoes 13.3629
lfemur -38.4266 -0.368223 -7.68287
ltibia 10.7559
lfoot -20.3751 11.7475
ltoes -7.61705
133
root 9.08949 15.8814 -7.69126 9.26047 -14.3701 -6.30264
lowerback -1.22429 5.93957 6.57956
upperback -2.9947 7.95725 1.66027
thorax -1.76644 3.85964 -1.90966
lowerneck -11.8173 -0.377439 -3.37262
upperneck 10.0604 0.104676 -0.299677
head 4.95815 -0.0997163 0.461405
rclavicle 9.99079e-014 3.02153e-014
rhumerus 1.8831 3.68115 -84.7066
rradius 45.16
rwrist -19.2853
rhand -20.8895 -38.8408
rfingers 7.12502
rthumb 5.481 -68.7499
lclavicle 9.99079e-014 3.02153e-014
lhumerus -69.7662 15.5137 64.4622
lradius 12.8471
lwrist -3.85486
lhand -11.628 -8.65571
lfingers 7.12502
lthumb 14.4155 20.8237
rfemur 9.51971 -2.32639 25.6861
rtibia 13.8522
rfoot -3.91375 25.2718
rtoes 13.3534
lfemur -38.3677 -0.634314 -7.07405
ltibia 11.2401
lfoot -20.8929 10.785
ltoes -3.369
134
root 9.09555 15.8405 -7.46107 9.36112 -14.2483 -6.73636
lowerback -1.07751 5.99422 6.81622
upperback -3.10551 8.05059 1.69424
thorax -1.93087 3.89406 -2.02353
lowerneck -11.8909 -0.432543 -3.35247
upperneck 10.05 0.00694859 -0.115242
head 4.9682 -0.134356 0.508046
rclavicle -5.09883e-014 -2.44505e-014
rhumerus 2.04692 3.4478 -84.5229
rradius 45.629
rwrist -18.9949
rhand -20.6527 -38.0503
rfingers 7.12502
rthumb 5.70966 -67.9534
lclavicle -5.09883e-014 -2.44505e-014
lhumerus -70.5923 16.2218 61.4837
lradius 11.856
lwrist -5.97821
lhand -11.5836 -8.87501
lfingers 7.12502
lthumb 14.4582 20.6013
rfemur 10.4098 -1.57284 26.0508
rtibia 13.699
rfoot -2.98705 24.5737
rtoes 12.9714
lfemur -38.5435 -1.17369 -6.56281
ltibia 12.0064
lfoot -19.8457 12.75
ltoes -12.6799
135
root 9.09991 15.8066 -7.22317 9.28699 -14.0801 -6.58267
lowerback -0.958769 5.97693 6.39674
upperback -3.17574 8.04059 1.61053
thorax -2.11298 3.89114 -1.90428
lowerneck -11.8303 -0.505308 -3.21886
upperneck 9.87413 -0.118219 -0.114568
head 4.90519 -0.188281 0.47699
rclavicle 2.85442e-015 1.15295e-014
rhumerus 2.01969 3.64084 -84.1589
rradius 46.2317
rwrist -19.2582
rhand -20.6153 -37.3117
rfingers 7.12502
rthumb 5.74578 -67.2138
lclavicle 2.85442e-015 1.15295e-014
lhumerus -71.5681 16.9172 58.5905
lradius 11.3488
lwrist -8.38722
lhand -10.5454 -9.18265
lfingers 7.12502
lthumb 15.4584 20.2193
rfemur 11.0771 -1.01416 25.8165
rtibia 14.1923
rfoot -3.1466 24.0166
rtoes 8.87274
lfemur -38.7651 1.2088 -8.72466
ltibia 12.9366
lfoot -16.1866 12.0377
ltoes -20.6589
136
root 9.10472 15.7827 -6.96379 8.84867 -14.106 -5.89154
lowerback -0.89751 5.97368 5.47572
upperback -3.06104 8.0291 1.41184
thorax -2.11927 3.9069 -1.61453
lowerneck -11.9709 -0.661179 -3.34154
upperneck 9.89482 -0.333621 0.147664
head 4.93867 -0.281314 0.561773
rclavicle 7.65352e-014 2.00773e-014
rhumerus 1.91434 3.94113 -83.7473
rradius 46.8943
rwrist -19.8174
rhand -20.2798 -37.2451
rfingers 7.12502
rthumb 6.06972 -67.1381
lclavicle 7.65352e-014 2.00773e-014
lhumerus -72.8811 17.8845 55.0224
lradius 11.3108
lwrist -11.5596
lhand -9.93644 -9.44563
lfingers 7.12502
lthumb 16.0449 19.91
rfemur 11.8186 -0.588076 24.8921
rtibia 15.1267
rfoot -3.29568 23.7278
rtoes 5.58415
lfemur -38.4816 2.49841 -10.7796
ltibia 14.1476
lfoot -14.4643 11.0846
ltoes -22.2247
